<svg xmlns="http://www.w3.org/2000/svg" viewBox="0 0 960 400" width="960" height="400"><defs><style>text{font-family:Arial,Helvetica,sans-serif}</style></defs><rect x="0" y="0" width="960" height="400" fill="white"/><text x="480" y="30" text-anchor="middle" font-size="22" font-weight="bold" fill="#1A1A1A">FP Intron Architecture — VHH27 Splice Design</text><text x="480" y="52" text-anchor="middle" font-size="12" fill="#546E7A">Intronic VHH27 CDS flanked by splice donor (GT) and acceptor (AG) within VP1 exonic sequence</text><rect x="139.6" y="236" width="656.9" height="138" rx="4" fill="#FFF8E1" stroke="none"/><text x="468.1" y="369" text-anchor="middle" font-size="8" fill="#78909C">Intron</text><line x1="50" y1="244" x2="910" y2="244" stroke="#37474F" stroke-width="1.6"/><rect x="50.0" y="248" width="89.6" height="20" rx="3" fill="#283593" stroke="#37474F" stroke-width="0.7"/><text x="94.8" y="261.2" text-anchor="middle" font-size="9" font-weight="bold" fill="white">VP1</text><rect x="139.6" y="248" width="47.8" height="20" rx="3" fill="#BF360C" stroke="#37474F" stroke-width="0.7"/><text x="163.5" y="261.2" text-anchor="middle" font-size="9" font-weight="bold" fill="white">SD</text><rect x="187.4" y="248" width="507.6" height="20" rx="3" fill="#00695C" stroke="#37474F" stroke-width="0.7"/><text x="441.2" y="261.2" text-anchor="middle" font-size="9" font-weight="bold" fill="white">VHH27</text><rect x="695.0" y="248" width="101.5" height="20" rx="3" fill="#BF360C" stroke="#37474F" stroke-width="0.7"/><text x="745.8" y="261.2" text-anchor="middle" font-size="9" font-weight="bold" fill="white">SA</text><rect x="796.5" y="248" width="113.5" height="20" rx="3" fill="#283593" stroke="#37474F" stroke-width="0.7"/><text x="853.3" y="261.2" text-anchor="middle" font-size="9" font-weight="bold" fill="white">VP1</text><line x1="422.9" y1="180" x2="142.0" y2="236" stroke="#607D8B" stroke-width="1.2"/><line x1="504.4" y1="180" x2="794.1" y2="236" stroke="#607D8B" stroke-width="1.2"/><rect x="395.5" y="150" width="54.7" height="30" rx="5" fill="white" stroke="#607D8B" stroke-width="1.0"/><text x="422.9" y="168.6" text-anchor="middle" font-size="10" fill="#37474F">GT donor</text><rect x="468.3" y="150" width="72.3" height="30" rx="5" fill="white" stroke="#607D8B" stroke-width="1.0"/><text x="504.4" y="168.6" text-anchor="middle" font-size="10" fill="#37474F">AG acceptor</text><circle cx="142.0" cy="236" r="3" fill="#607D8B"/><circle cx="794.1" cy="236" r="3" fill="#607D8B"/></svg>